<svg width="680" height="380" viewBox="0 0 680 380" xmlns="http://www.w3.org/2000/svg">
<rect width="680" height="380" fill="#0e0e0c"/>
<rect x="40" y="40" width="600" height="300" rx="4" fill="#141412" stroke="#2a2a28" stroke-width="0.5"/>
<text font-family="monospace" font-size="9" letter-spacing="3" fill="#d4cfc4" x="320" y="68" text-anchor="middle">REDKEY · ENCRYPTED FILE RETRIEVAL SYSTEM</text>
<text font-family="monospace" font-size="8" fill="#3a3a38" x="320" y="82" text-anchor="middle">AES-256 · rotating API keys · zero plaintext storage</text>
<rect x="58" y="96" width="170" height="190" rx="3" fill="#1a1a18" stroke="#2a2a28" stroke-width="0.5"/>
<text font-family="monospace" font-size="8" letter-spacing="1" fill="#5a5a58" x="143" y="114" text-anchor="middle">CLIENT</text>
<rect x="72" y="122" width="142" height="26" rx="2" fill="#222220" stroke="#2a2a28" stroke-width="0.5"/>
<text font-family="monospace" font-size="8" fill="#aaa8a0" x="143" y="139" text-anchor="middle">1. request file</text>
<rect x="72" y="154" width="142" height="26" rx="2" fill="#222220" stroke="#2a2a28" stroke-width="0.5"/>
<text font-family="monospace" font-size="8" fill="#aaa8a0" x="143" y="171" text-anchor="middle">2. send API key</text>
<rect x="72" y="186" width="142" height="26" rx="2" fill="#222220" stroke="#2a2a28" stroke-width="0.5"/>
<text font-family="monospace" font-size="8" fill="#aaa8a0" x="143" y="203" text-anchor="middle">3. receive encrypted</text>
<rect x="72" y="218" width="142" height="26" rx="2" fill="#d4cfc4" opacity="0.08" stroke="#3a3a38" stroke-width="0.5"/>
<text font-family="monospace" font-size="8" fill="#d4cfc4" x="143" y="235" text-anchor="middle">4. decrypt locally</text>
<rect x="255" y="96" width="170" height="190" rx="3" fill="#1a1a18" stroke="#3a3a38" stroke-width="0.8"/>
<text font-family="monospace" font-size="8" letter-spacing="1" fill="#aaa8a0" x="340" y="114" text-anchor="middle">REDKEY ENGINE</text>
<rect x="269" y="122" width="142" height="26" rx="2" fill="#222220" stroke="#2a2a28" stroke-width="0.5"/>
<text font-family="monospace" font-size="8" fill="#aaa8a0" x="340" y="139" text-anchor="middle">validate + rotate key</text>
<rect x="269" y="154" width="142" height="26" rx="2" fill="#d4cfc4" opacity="0.1" stroke="#3a3a38" stroke-width="0.5"/>
<text font-family="monospace" font-size="8" fill="#d4cfc4" x="340" y="171" text-anchor="middle">AES-256 encrypt transit</text>
<rect x="269" y="186" width="142" height="26" rx="2" fill="#222220" stroke="#2a2a28" stroke-width="0.5"/>
<text font-family="monospace" font-size="8" fill="#aaa8a0" x="340" y="203" text-anchor="middle">RBAC permission check</text>
<rect x="269" y="218" width="142" height="26" rx="2" fill="#222220" stroke="#2a2a28" stroke-width="0.5"/>
<text font-family="monospace" font-size="8" fill="#aaa8a0" x="340" y="235" text-anchor="middle">write audit log</text>
<rect x="452" y="96" width="170" height="190" rx="3" fill="#1a1a18" stroke="#2a2a28" stroke-width="0.5"/>
<text font-family="monospace" font-size="8" letter-spacing="1" fill="#5a5a58" x="537" y="114" text-anchor="middle">SECURE STORE</text>
<rect x="466" y="122" width="142" height="26" rx="2" fill="#222220" stroke="#2a2a28" stroke-width="0.5"/>
<text font-family="monospace" font-size="8" fill="#aaa8a0" x="537" y="139" text-anchor="middle">encrypted at rest</text>
<rect x="466" y="154" width="142" height="26" rx="2" fill="#222220" stroke="#2a2a28" stroke-width="0.5"/>
<text font-family="monospace" font-size="8" fill="#aaa8a0" x="537" y="171" text-anchor="middle">RBAC file access</text>
<rect x="466" y="186" width="142" height="26" rx="2" fill="#222220" stroke="#2a2a28" stroke-width="0.5"/>
<text font-family="monospace" font-size="8" fill="#aaa8a0" x="537" y="203" text-anchor="middle">zero plaintext stored</text>
<rect x="466" y="218" width="142" height="26" rx="2" fill="#222220" stroke="#2a2a28" stroke-width="0.5"/>
<text font-family="monospace" font-size="8" fill="#aaa8a0" x="537" y="235" text-anchor="middle">tamper-evident log</text>
<line x1="228" y1="191" x2="255" y2="191" stroke="#3a3a38" stroke-width="0.8" stroke-dasharray="3 2"/>
<line x1="425" y1="191" x2="452" y2="191" stroke="#3a3a38" stroke-width="0.8" stroke-dasharray="3 2"/>
<rect x="58" y="304" width="564" height="22" rx="2" fill="#1a1a18"/>
<text font-family="monospace" font-size="8" fill="#3a3a38" x="320" y="319" text-anchor="middle">Python · AES-256 · Rotating APIs · Zero plaintext · Tamper-evident audit trail</text>
</svg>
